<svg class="svg" xmlns="http://www.w3.org/2000/svg" width="73" height="26" viewBox="0 0 73 26">
    <path fill="#000" fill-opacity="1" fill-rule="nonzero" stroke="none" d="M.52.001v20.161l2.594.008v-9.6H9.37V8.031H3.114V2.538h8.146V0L.52.001zm15.409 4.093c.934 0 1.692-.758 1.692-1.692 0-.934-.758-1.692-1.692-1.692-.934 0-1.692.758-1.692 1.692 0 .934.758 1.692 1.692 1.692zm-1.32 2.537v13.535h2.594V6.631H14.61z"></path>
    <path fill="#000" fill-opacity="1" fill-rule="evenodd" stroke="none" d="M26.825 6.237c-3.445 0-5.849 2.913-5.849 6.372 0 3.46 2.404 6.373 5.849 6.373 1.577 0 2.877-.611 3.823-1.605v1.802c0 2.242-1.762 4.117-4.06 4.117-.827 0-1.648-.32-2.302-.771l-1.3 2.25c1.038.67 2.274 1.058 3.601 1.058 3.676 0 6.655-2.979 6.655-6.654V6.631h-2.594v1.21c-.946-.994-2.246-1.604-3.823-1.604zm-3.255 6.372c0-2.147 1.643-3.835 3.537-3.835 1.894 0 3.537 1.688 3.537 3.835 0 2.147-1.643 3.835-3.537 3.835-1.894 0-3.537-1.688-3.537-3.835z"></path>
    <path fill="#000" fill-opacity="1" fill-rule="nonzero" stroke="none" d="M42.59 8.774c-1.535 0-2.778 1.3-2.778 2.834v8.558h-2.594V6.63h2.594v1.24c.76-.982 1.88-1.634 3.341-1.634 1.818 0 3.213.903 4.02 2.284.9-1.334 2.365-2.284 4.129-2.284 2.952 0 4.79 2.382 4.808 5.329v8.6h-2.595v-8.558c0-1.534-1.243-2.834-2.777-2.834-1.534 0-2.777 1.3-2.777 2.834v8.558h-2.594v-8.558c0-1.534-1.244-2.834-2.778-2.834z"></path>
    <path fill="#000" fill-opacity="1" fill-rule="evenodd" stroke="none" d="M69.926 8.166c-1.154-1.192-2.735-1.93-4.568-1.93-3.86 0-6.598 3.268-6.598 7.163 0 3.894 2.739 7.162 6.598 7.162 1.833 0 3.414-.738 4.568-1.93v1.535h2.594V6.63h-2.594v1.535zm-8.572 5.233c0-2.584 1.978-4.625 4.286-4.625 2.308 0 4.286 2.04 4.286 4.625 0 2.583-1.978 4.624-4.286 4.624-2.308 0-4.286-2.04-4.286-4.624z"></path>
</svg>